<svg xmlns="http://www.w3.org/2000/svg" width="32" height="32" xml:space="preserve"><path style="stroke:#02632c;stroke-width:.1;stroke-dasharray:none;stroke-linecap:butt;stroke-dashoffset:0;stroke-linejoin:miter;stroke-miterlimit:4;fill:#02632c;fill-rule:nonzero;opacity:1" vector-effect="non-scaling-stroke" transform="matrix(1.03 0 0 1.13 4.42 18.86)" d="M-.856-7.528c-.038-.14-.183-.234-.34-.22-.159.014-.282.13-.29.275l-.78 14.699a.497.497 0 0 0 .323.48.59.59 0 0 0 .61-.099l3.407-3.032a.551.551 0 0 0 .175-.558z" stroke-linecap="round"/><path style="stroke:#a1b436;stroke-width:.1;stroke-dasharray:none;stroke-linecap:butt;stroke-dashoffset:0;stroke-linejoin:miter;stroke-miterlimit:4;fill:#a1b436;fill-rule:nonzero;opacity:1" vector-effect="non-scaling-stroke" transform="matrix(1.09 0 0 1.24 5.76 8.57)" d="M-1.808-6.615a.68.68 0 0 0-.502.212.52.52 0 0 0-.128.479L.62 6.4c.033.132.17.223.323.214.153-.009.276-.115.289-.25l1.22-12.596a.328.328 0 0 0-.105-.269.426.426 0 0 0-.294-.114z" stroke-linecap="round"/><path style="stroke:#02632c;stroke-width:.1;stroke-dasharray:none;stroke-linecap:butt;stroke-dashoffset:0;stroke-linejoin:miter;stroke-miterlimit:4;fill:#02632c;fill-rule:nonzero;opacity:1" vector-effect="non-scaling-stroke" transform="matrix(1.09 0 0 1.24 13.24 12.65)" d="M-3.183-7.997c-.159 0-.291.106-.305.245L-5.081 7.679c-.013.122.063.238.19.29a.367.367 0 0 0 .376-.058l3.444-3.042v-1.33L-3.835.138l.377-.692a.365.365 0 0 1 .293-.18c.127-.01.25.038.326.128l2.193 2.605.608-8.707c.017-.246.249-.437.53-.437h.57a.1.1 0 0 1 .069.026.076.076 0 0 1 .024.06L.79-2.36l1.949-1.822a.66.66 0 0 1 .479-.17c.18.009.347.087.457.213l.251.29L.79-1.032.47 3.806 4.246.403l.65-6.035.185-1.719a.547.547 0 0 0-.173-.453.719.719 0 0 0-.497-.193z" stroke-linecap="round"/><path style="stroke:#a1b436;stroke-width:.1;stroke-dasharray:none;stroke-linecap:butt;stroke-dashoffset:0;stroke-linejoin:miter;stroke-miterlimit:4;fill:#a1b436;fill-rule:nonzero;opacity:1" vector-effect="non-scaling-stroke" transform="matrix(1.09 0 0 1.24 23.89 6.82)" d="M-3.363-3.17c.011-.093.1-.164.206-.167l6.916-.186a.367.367 0 0 1 .343.192.29.29 0 0 1-.08.35l-7.47 6.404a.445.445 0 0 1-.456.065c-.153-.065-.243-.207-.225-.355z" stroke-linecap="round"/><path style="stroke:#28b249;stroke-width:.1;stroke-dasharray:none;stroke-linecap:butt;stroke-dashoffset:0;stroke-linejoin:miter;stroke-miterlimit:4;fill:#28b249;fill-rule:nonzero;opacity:1" vector-effect="non-scaling-stroke" transform="matrix(1.06 0 0 1.2 24.26 11.05)" d="m-2.207.536 6.994-6.107a.36.36 0 0 1 .355-.062c.121.045.2.149.2.264V4.998a.631.631 0 0 1-.285.516.83.83 0 0 1-.638.122l-9.505-2.002a.32.32 0 0 1-.244-.205.27.27 0 0 1 .084-.287l2.03-1.809 5.837 1.27a.416.416 0 0 0 .426-.153l.27-.383c.05-.071.06-.16.023-.238a.292.292 0 0 0-.207-.156z" stroke-linecap="round"/><path style="stroke:#28b249;stroke-width:.1;stroke-dasharray:none;stroke-linecap:butt;stroke-dashoffset:0;stroke-linejoin:miter;stroke-miterlimit:4;fill:#28b249;fill-rule:nonzero;opacity:1" vector-effect="non-scaling-stroke" transform="matrix(1.09 0 0 1.24 19.81 23.55)" d="m-5.4-2.807 2.656-2.508a.577.577 0 0 1 .521-.133L8.848-2.892c.218.05.37.223.37.42v7.18a.727.727 0 0 1-.34.6.957.957 0 0 1-.75.128L-8.866 1.318a.45.45 0 0 1-.334-.296A.384.384 0 0 1-9.08.62l2.73-2.417L5.92.648c.002 0 .005 0 .007-.003l.31-.404c.084-.111.1-.251.042-.375a.446.446 0 0 0-.33-.24l-3.693-.654 2.09-1.118a.09.09 0 0 0 .05-.077.09.09 0 0 0-.047-.079l-.57-.325a.711.711 0 0 0-.647-.023L.767-1.53z" stroke-linecap="round"/><path style="stroke:#a1b436;stroke-width:.1;stroke-dasharray:none;stroke-linecap:butt;stroke-dashoffset:0;stroke-linejoin:miter;stroke-miterlimit:4;fill:#a1b436;fill-rule:nonzero;opacity:1" vector-effect="non-scaling-stroke" transform="matrix(1.09 0 0 1.24 13.25 28.86)" d="M-8.932 2.228a.44.44 0 0 1-.408-.232.347.347 0 0 1 .093-.419l4.255-3.702a.445.445 0 0 1 .393-.09L9.045 1.107c.215.052.354.235.326.43-.027.194-.213.341-.436.346z" stroke-linecap="round"/></svg>