<svg width="640" height="640" xmlns="http://www.w3.org/2000/svg"><g><path style="stroke:#09622f;stroke-width:1;stroke-dasharray:none;stroke-linecap:butt;stroke-dashoffset:0;stroke-linejoin:miter;stroke-miterlimit:4;fill:#096330;fill-rule:nonzero;opacity:1" vector-effect="non-scaling-stroke" transform="matrix(1.53655 0 0 1.606 102.803 378.44)" d="M-15.896 106.16c-1.388 1.286-3.328 1.57-4.974.73-1.646-.84-2.7-2.653-2.7-4.646V-101.8c0-2.82 1.92-5.194 4.47-5.528 2.55-.334 4.925 1.479 5.529 4.22l36.96 167.794c.572 2.594-.241 5.32-2.099 7.04z" stroke-linecap="round"/></g><g><path style="stroke:#a0b339;stroke-width:1;stroke-dasharray:none;stroke-linecap:butt;stroke-dashoffset:0;stroke-linejoin:miter;stroke-miterlimit:4;fill:#a0b339;fill-rule:nonzero;opacity:1" vector-effect="non-scaling-stroke" transform="matrix(1.53655 0 0 1.63615 129.451 169.807)" d="M4.39 82.914c.597 2.813 2.958 4.74 5.582 4.557 2.625-.183 4.745-2.422 5.013-5.295L30.306-81.867c.134-1.435-.292-2.864-1.172-3.935-.88-1.07-2.131-1.68-3.445-1.68h-50.447c-1.7 0-3.307.852-4.364 2.314-1.057 1.462-1.449 3.375-1.063 5.193z" stroke-linecap="round"/></g><g><path style="stroke:#09622f;stroke-width:1;stroke-dasharray:none;stroke-linecap:butt;stroke-dashoffset:0;stroke-linejoin:miter;stroke-miterlimit:4;fill:#096330;fill-rule:nonzero;opacity:1" vector-effect="non-scaling-stroke" transform="matrix(1.53655 0 0 1.63615 279.604 254.71)" d="m5.437 49.845 5.177-68.696 35.537-29.151c3.117-2.557 3.993-7.273 2.038-10.967l-.115-.216c-.884-1.67-2.382-2.837-4.108-3.204-1.727-.367-3.514.104-4.9 1.292L10.613-36.742l4.397-59.652c.162-2.2-.521-4.375-1.884-5.998-1.363-1.623-3.282-2.546-5.293-2.546H6.46c-3.52 0-6.446 2.979-6.712 6.833L-8.476 21.15l-23.39-30.935c-2.057-2.72-5.606-3.406-8.385-1.62l-.783.504c-1.68 1.08-2.868 2.892-3.267 4.985-.4 2.094.025 4.276 1.17 6.007l31.177 47.146v21.74l-45.296 43.507c-1.311 1.26-3.19 1.509-4.738.63-1.547-.88-2.446-2.71-2.266-4.613l20.645-218.423c.2-2.109 1.817-3.71 3.747-3.71H61.412c.808 0 1.578.374 2.121 1.03.543.657.808 1.535.73 2.418L54.346 2.216c-.137 1.546-.818 2.973-1.898 3.976z" stroke-linecap="round"/></g><g><path style="stroke:#a0b339;stroke-width:1;stroke-dasharray:none;stroke-linecap:butt;stroke-dashoffset:0;stroke-linejoin:miter;stroke-miterlimit:4;fill:#a0b339;fill-rule:nonzero;opacity:1" vector-effect="non-scaling-stroke" transform="matrix(1.53655 0 0 1.63615 467.075 143.566)" d="M-41.424-43.049c.13-1.634 1.376-2.888 2.87-2.888h81.618c1.994 0 3.78 1.353 4.488 3.4.708 2.048.19 4.362-1.303 5.815L-36.749 44.09c-2.047 1.992-4.993 2.414-7.436 1.065-2.444-1.35-3.892-4.199-3.655-7.191z" stroke-linecap="round"/></g><g><path style="stroke:#2cb14a;stroke-width:1;stroke-dasharray:none;stroke-linecap:butt;stroke-dashoffset:0;stroke-linejoin:miter;stroke-miterlimit:4;fill:#2cb14a;fill-rule:nonzero;opacity:1" vector-effect="non-scaling-stroke" transform="matrix(1.53655 0 0 1.63615 475.821 228.142)" d="m-32.313 11.74 88.724-86.364c1.593-1.55 3.867-1.93 5.808-.97 1.94.96 3.187 3.083 3.184 5.42l-.182 138.688c-.003 2.285-.94 4.448-2.553 5.891-1.612 1.444-3.73 2.016-5.769 1.56L-62.047 49.303c-1.578-.354-2.833-1.67-3.228-3.384-.395-1.715.139-3.527 1.374-4.663l20.284-18.647 77.39 18.71c2.01.486 4.11-.137 5.623-1.669s2.249-3.779 1.97-6.018l-.216-1.748c-.343-2.767-2.254-4.986-4.751-5.517z" stroke-linecap="round"/></g><g><path style="stroke:#2cb14a;stroke-width:1;stroke-dasharray:none;stroke-linecap:butt;stroke-dashoffset:0;stroke-linejoin:miter;stroke-miterlimit:4;fill:#2cb14a;fill-rule:nonzero;opacity:1" vector-effect="non-scaling-stroke" transform="matrix(1.47209 0 0 1.57322 398.757 448.582)" d="m-70.667-38.208 35.01-33.917c1.24-1.202 2.924-1.69 4.543-1.32l146.585 33.559c2.555.585 4.386 3.058 4.386 5.924V67.904c0 1.727-.717 3.36-1.949 4.434-1.231 1.074-2.841 1.472-4.373 1.082l-229.594-58.5c-1.828-.466-3.253-2.035-3.673-4.043-.42-2.008.239-4.103 1.698-5.398l33.585-29.793L73.189 7.476c1.965.397 3.989-.186 5.524-1.59 1.535-1.404 2.423-3.485 2.423-5.679v-3.35c0-2.213-1.42-4.12-3.394-4.56L28.929-18.586l20.693-8.367c1.852-.749 3.262-2.43 3.79-4.517s.11-4.325-1.125-6.015l-.291-.4c-1.735-2.374-4.653-3.273-7.26-2.237L4.991-24.314z" stroke-linecap="round"/></g><g><path style="stroke:#a0b339;stroke-width:1;stroke-dasharray:none;stroke-linecap:butt;stroke-dashoffset:0;stroke-linejoin:miter;stroke-miterlimit:4;fill:#a0b339;fill-rule:nonzero;opacity:1" vector-effect="non-scaling-stroke" d="M-53.815-27.663c-5.206-1.171-8.98.294-9.782 1.031l-51.67 46.606c-1.553 1.429-2.142 3.757-1.474 5.831.666 2.074 2.447 3.453 4.459 3.453h228.33c1.974 0 3.658-1.614 3.929-3.765.27-2.15-.959-4.162-2.866-4.692L-53.815-27.663Z" stroke-linecap="round" transform="matrix(1.65838 .00075 -.00075 1.67053 288.433 548.253)"/></g></svg>