<?xml version="1.0" standalone="no"?>
<!DOCTYPE svg PUBLIC "-//W3C//DTD SVG 20010904//EN"
 "http://www.w3.org/TR/2001/REC-SVG-20010904/DTD/svg10.dtd">
<svg version="1.0" xmlns="http://www.w3.org/2000/svg"
 width="700.000000pt" height="700.000000pt" viewBox="0 0 700.000000 700.000000"
 preserveAspectRatio="xMidYMid meet">
<metadata>
Created by potrace 1.14, written by Peter Selinger 2001-2017
</metadata>
<g transform="translate(0.000000,700.000000) scale(0.100000,-0.100000)"
fill="#000000" stroke="none">
<path d="M1079 6621 c-19 -20 -29 -40 -29 -60 0 -17 23 -129 51 -248 28 -120
52 -226 54 -236 3 -10 6 -26 9 -35 3 -9 7 -28 10 -42 3 -14 23 -104 46 -200
22 -96 52 -222 66 -280 13 -58 37 -161 54 -230 32 -136 60 -258 175 -750 41
-179 80 -335 86 -346 13 -25 49 -44 83 -44 22 0 75 40 77 57 0 4 2 15 4 23 1
8 6 47 9 85 4 39 9 88 11 110 3 22 12 108 20 190 24 240 25 248 30 285 2 19 7
67 11 105 3 39 7 81 9 95 1 14 6 59 10 100 4 41 9 89 11 105 2 17 6 59 9 95 3
36 8 76 10 90 2 14 7 61 11 105 3 44 8 87 9 95 2 8 6 49 10 90 3 41 8 86 10
100 2 14 6 59 10 100 3 41 8 86 10 100 2 14 7 54 10 90 3 36 8 81 10 100 3 19
7 58 9 85 3 28 8 79 12 115 13 111 10 131 -20 157 l-27 23 -420 0 -421 0 -29
-29z"/>
<path d="M2429 6282 c-46 -5 -59 -32 -69 -133 -5 -52 -12 -112 -14 -134 -3
-22 -8 -67 -11 -100 -3 -33 -8 -76 -11 -95 -2 -19 -6 -62 -9 -95 -3 -33 -11
-121 -20 -195 -21 -197 -27 -251 -30 -290 -4 -42 -14 -140 -20 -195 -3 -22 -7
-62 -10 -90 -3 -27 -7 -68 -10 -90 -2 -22 -7 -67 -10 -100 -3 -33 -8 -78 -10
-100 -2 -22 -7 -65 -10 -95 -5 -52 -11 -110 -20 -190 -8 -65 -14 -135 -21
-205 -3 -38 -7 -81 -9 -95 -2 -14 -6 -54 -10 -90 -3 -36 -8 -76 -10 -90 -2
-14 -7 -61 -11 -105 -3 -44 -8 -87 -9 -95 -2 -8 -6 -49 -9 -90 -4 -41 -9 -86
-11 -100 -3 -14 -7 -54 -10 -90 -3 -36 -8 -81 -10 -100 -5 -39 -16 -160 -19
-204 -3 -37 21 -66 60 -72 29 -4 64 15 116 66 8 8 41 38 74 65 32 28 81 70
109 95 28 25 80 70 115 100 35 30 71 62 80 70 9 8 47 42 85 75 39 33 86 74
105 92 19 17 45 39 58 50 21 17 22 25 23 175 1 86 -2 162 -7 170 -5 7 -115
159 -245 338 -130 179 -241 334 -246 345 -21 40 2 102 47 128 32 20 69 22 102
6 13 -6 108 -114 212 -240 105 -126 191 -227 192 -226 1 1 5 45 8 97 4 52 9
118 11 145 2 28 7 84 10 125 3 41 8 102 10 135 10 127 15 203 20 275 3 41 7
98 10 125 2 28 7 86 10 130 3 44 8 105 10 135 3 30 7 91 10 135 4 44 8 98 10
120 2 22 6 85 10 140 11 178 16 195 67 221 61 32 152 -2 163 -61 10 -48 9 -52
-10 -275 -2 -25 -6 -79 -9 -120 -7 -93 -16 -191 -21 -250 -2 -25 -7 -88 -11
-140 -4 -52 -8 -98 -11 -102 -10 -18 19 -6 49 20 18 16 73 59 123 98 49 38 97
74 105 81 88 72 189 147 207 153 33 14 76 -3 101 -40 27 -40 28 -75 4 -115
-11 -17 -144 -123 -300 -239 -155 -116 -284 -217 -286 -225 -3 -9 -8 -59 -11
-111 -4 -52 -9 -108 -10 -125 -2 -16 -6 -70 -9 -120 -4 -49 -9 -105 -11 -125
-2 -19 -7 -73 -10 -120 -4 -47 -8 -96 -10 -110 -2 -14 -6 -70 -10 -125 -4 -55
-9 -108 -10 -117 -2 -10 -1 -18 3 -18 4 0 162 131 352 291 190 160 354 299
366 308 37 29 53 65 59 136 3 39 8 86 10 105 3 19 7 62 10 95 3 33 7 80 10
105 2 25 7 74 10 110 4 36 8 81 10 100 2 19 6 64 10 100 3 36 8 85 11 110 2
25 6 68 9 95 2 28 6 73 9 100 7 64 24 243 31 320 3 33 7 74 9 90 9 62 20 211
17 225 -8 43 12 42 -818 44 -433 0 -800 0 -814 -2z"/>
<path d="M4329 6270 c-12 -10 -19 -36 -24 -85 -3 -38 -8 -95 -11 -125 -2 -30
-6 -73 -9 -95 -2 -22 -7 -76 -10 -120 -3 -44 -8 -96 -10 -115 -2 -19 -7 -71
-11 -115 -3 -44 -7 -96 -9 -115 -2 -19 -6 -73 -10 -120 -4 -47 -11 -119 -15
-160 -13 -131 -8 -185 19 -214 27 -29 78 -42 114 -30 14 5 56 36 93 69 37 33
151 134 253 224 102 90 204 180 226 200 22 20 96 86 165 146 69 60 127 112
130 115 3 3 39 35 80 70 41 36 86 76 101 90 14 14 52 48 84 75 32 28 68 59 79
70 12 11 49 44 82 72 64 55 80 87 63 129 -18 49 -11 49 -708 49 -576 1 -656
-1 -672 -15z"/>
<path d="M5893 5923 c-38 -31 -70 -59 -73 -62 -3 -3 -43 -40 -90 -81 -47 -41
-87 -77 -90 -80 -3 -3 -61 -55 -130 -115 -69 -61 -143 -126 -165 -146 -90 -81
-164 -146 -201 -178 -21 -18 -62 -54 -90 -80 -28 -25 -66 -59 -86 -76 -19 -16
-68 -59 -108 -95 -40 -36 -82 -73 -94 -83 -33 -29 -145 -128 -190 -168 l-40
-37 30 -5 c16 -4 148 -29 294 -57 269 -52 631 -122 729 -141 80 -16 112 -58
102 -131 -5 -38 -47 -78 -82 -78 -16 0 -71 9 -122 21 -50 11 -101 22 -112 25
-11 2 -81 17 -155 34 -74 16 -290 63 -480 105 -190 41 -351 77 -357 80 -7 2
-46 -24 -86 -58 -80 -67 -138 -115 -203 -168 -48 -39 -73 -76 -68 -103 7 -45
33 -55 304 -110 146 -30 346 -71 445 -91 211 -43 213 -44 245 -50 20 -4 665
-136 735 -151 204 -42 233 -44 272 -18 52 33 51 6 52 1087 l1 1008 -29 30
c-46 45 -78 40 -158 -28z"/>
<path d="M929 5083 c-8 -2 -23 -17 -32 -32 -16 -27 -17 -135 -17 -1499 l0
-1469 21 -27 c33 -42 75 -36 146 21 52 42 287 240 353 296 14 12 52 44 85 71
101 84 134 118 140 147 4 18 -12 103 -44 236 -44 180 -127 518 -231 948 -84
346 -161 667 -236 980 -30 127 -62 248 -70 271 -19 53 -58 73 -115 57z"/>
<path d="M3755 3980 c-11 -4 -69 -52 -130 -105 -60 -54 -141 -125 -179 -159
-190 -167 -247 -219 -244 -221 2 -2 23 -5 48 -8 25 -4 54 -8 65 -10 22 -5 72
-13 120 -21 86 -14 403 -68 425 -72 14 -2 41 -7 60 -10 19 -3 122 -20 229 -38
l194 -32 301 109 c165 60 309 111 319 113 29 5 75 -23 92 -57 13 -25 14 -36 4
-63 -15 -43 -22 -47 -202 -112 -147 -54 -182 -70 -155 -71 7 0 95 -17 195 -37
100 -20 192 -39 205 -41 13 -3 34 -7 48 -10 44 -9 73 -15 182 -36 59 -12 115
-27 124 -33 22 -17 28 -99 10 -135 -8 -15 -26 -33 -41 -41 -31 -17 -19 -19
-765 120 -233 43 -1042 192 -1120 206 -117 21 -254 47 -295 55 -27 6 -67 12
-87 15 -20 3 -63 11 -96 18 l-60 12 -233 -189 c-302 -243 -299 -241 -299 -282
0 -48 29 -70 113 -90 40 -9 108 -25 152 -35 179 -42 256 -60 385 -90 74 -17
203 -47 285 -66 83 -20 157 -37 165 -39 509 -117 994 -230 1575 -366 94 -22
181 -42 195 -45 14 -3 33 -7 42 -10 9 -3 25 -6 35 -8 10 -2 135 -31 278 -64
143 -34 269 -63 280 -65 30 -5 74 20 85 49 6 15 10 309 10 740 l0 716 -28 27
c-19 19 -43 31 -77 36 -28 5 -54 10 -60 11 -14 4 -29 7 -280 59 -268 56 -483
101 -715 150 -96 20 -182 38 -190 40 -8 2 -73 15 -145 30 -71 15 -159 33 -195
40 -36 8 -184 39 -329 69 -144 31 -266 56 -270 55 -3 0 -15 -4 -26 -9z"/>
<path d="M1738 2314 c-133 -114 -265 -225 -293 -248 -27 -22 -68 -57 -90 -76
-22 -19 -69 -59 -105 -89 -117 -97 -135 -137 -85 -186 l24 -25 1814 0 c1757 0
1814 1 1831 19 26 29 27 59 3 85 -19 21 -125 56 -247 81 -8 2 -330 83 -715
180 -385 97 -707 178 -715 180 -8 2 -266 67 -572 144 -307 78 -569 141 -582
141 -17 0 -97 -62 -268 -206z"/>
<path d="M969 1176 c-2 -2 -22 -6 -44 -9 -159 -20 -283 -142 -313 -306 -13
-70 -8 -193 11 -264 60 -228 272 -312 587 -232 l66 16 -1 212 0 212 -162 2
-163 1 0 -73 0 -74 63 1 c34 0 69 0 77 -1 12 -1 15 -18 15 -85 l1 -84 -36 -6
c-57 -9 -143 0 -177 17 -73 38 -113 136 -108 267 4 118 52 201 140 241 65 30
183 24 276 -15 12 -5 22 8 43 58 15 36 25 69 22 74 -10 17 -126 43 -210 47
-45 3 -85 3 -87 1z"/>
<path d="M1470 760 c0 -318 3 -409 13 -412 10 -3 76 -3 143 1 19 1 20 6 20
156 l-1 155 46 0 47 0 43 -70 c24 -38 69 -109 100 -157 l55 -88 87 1 c48 0 89
3 92 5 2 3 -45 79 -106 170 -61 90 -113 169 -116 176 -2 6 4 14 14 17 34 11
101 87 116 131 32 92 2 208 -65 258 -68 50 -118 60 -320 62 l-168 3 0 -408z
m327 249 c42 -14 63 -44 63 -92 0 -49 -13 -73 -51 -93 -33 -16 -158 -30 -160
-17 -5 42 -3 209 3 214 12 8 108 0 145 -12z"/>
<path d="M2232 756 l3 -410 223 -1 c123 0 228 2 232 5 9 5 13 43 11 103 l-1
37 -148 0 -147 0 -1 105 -1 105 138 0 137 0 4 61 c1 33 1 65 -2 72 -4 9 -44
12 -140 12 l-135 0 -1 85 c-1 47 2 87 7 90 4 3 68 5 143 4 75 -1 138 2 141 5
2 4 5 36 6 71 l3 65 -237 1 -237 1 2 -411z"/>
<path d="M2878 1166 c-4 -3 -3 -816 1 -817 25 -4 454 -3 460 1 3 3 7 35 7 73
l0 67 -148 0 -148 0 0 105 c0 77 3 105 13 106 6 0 68 1 137 2 l125 2 0 70 -1
70 -137 -1 c-155 0 -138 -11 -139 91 0 100 -17 90 150 89 l148 -1 -2 66 c-1
36 -2 69 -3 72 -1 5 -454 9 -463 5z"/>
<path d="M3518 1156 c-2 -6 -3 -191 -3 -410 l1 -400 73 0 c40 -1 75 3 79 8 6
11 4 478 -3 556 -4 46 -3 52 9 40 12 -14 93 -152 169 -290 17 -30 40 -71 52
-90 12 -19 37 -62 55 -95 18 -33 43 -76 55 -95 l22 -35 100 1 c55 1 104 4 109
7 7 4 12 774 5 809 0 3 -35 6 -76 5 l-75 -2 -1 -100 c-1 -176 2 -429 6 -474
l3 -44 -30 48 c-16 26 -39 64 -49 84 -11 20 -24 43 -29 51 -5 8 -38 65 -73
125 -35 61 -91 155 -123 211 l-59 100 -107 1 c-69 0 -108 -4 -110 -11z"/>
<path d="M4450 756 l0 -411 235 0 c129 0 235 3 236 8 1 9 1 91 0 117 -1 19 -8
20 -149 20 l-148 0 1 103 0 102 137 3 136 3 4 49 c6 98 10 95 -137 94 -72 0
-133 3 -136 8 -3 5 -5 46 -4 91 l1 82 147 -1 c142 -1 147 0 148 20 0 12 2 35
3 51 2 17 -1 39 -5 51 -7 21 -12 21 -238 21 l-231 0 0 -411z"/>
<path d="M5094 759 c0 -364 2 -409 15 -410 9 0 48 -1 86 -2 l70 -1 2 99 c1 55
2 126 3 158 l0 57 48 0 c47 -1 47 -1 80 -59 19 -32 57 -94 85 -139 29 -44 57
-89 63 -98 8 -14 26 -17 102 -18 51 -1 92 3 92 7 0 5 -52 85 -116 179 -63 93
-114 171 -112 172 43 25 89 62 104 84 67 91 55 233 -26 306 -61 55 -119 68
-320 71 l-176 3 0 -409z m339 245 c72 -38 65 -156 -11 -185 -15 -6 -55 -13
-89 -15 l-63 -3 0 113 0 113 67 -4 c37 -3 80 -11 96 -19z"/>
<path d="M5755 1162 c-3 -3 -1 -10 4 -16 4 -6 30 -51 56 -101 89 -169 127
-240 166 -311 l39 -71 0 -157 c0 -118 3 -156 13 -157 54 -4 157 -3 158 1 1 3
2 77 2 166 1 100 6 166 13 175 6 8 36 61 67 119 31 58 85 159 121 225 36 66
66 123 66 127 0 4 -41 6 -91 5 l-91 -2 -85 -168 -86 -168 -81 163 c-45 90 -82
165 -84 168 -5 7 -180 8 -187 2z"/>
</g>
</svg>
